<?xml version="1.0" encoding="utf-8"?>
<!-- Generator: Adobe Illustrator 25.0.0, SVG Export Plug-In . SVG Version: 6.00 Build 0)  -->
<svg version="1.1" xmlns="http://www.w3.org/2000/svg" xmlns:xlink="http://www.w3.org/1999/xlink" x="0px" y="0px"
	 viewBox="0 0 10153.3 3500" style="enable-background:new 0 0 10153.3 3500;" xml:space="preserve">
<style type="text/css">
	.st0{display:none;}
	.st1{display:inline;fill:#FFCC33;stroke:#000000;stroke-miterlimit:10;}
	.st2{fill:none;stroke:#66B0F0;stroke-width:6;stroke-miterlimit:10;}
	.st3{fill:#D0F0E4;}
	.st4{fill:none;stroke:#FFCF2D;stroke-width:6;stroke-miterlimit:10;}
	.st5{fill:#FFFFFF;}
	.st6{fill:#66B0F0;}
	.st7{fill:#FFFFFF;stroke:#FFCF2D;stroke-width:5;stroke-miterlimit:10;}
	.st8{fill:#FFCF2D;}
	.st9{fill:#FFFFFF;stroke:#FE5244;stroke-width:6;stroke-miterlimit:10;}
	.st10{fill:#FE5244;}
	.st11{fill:none;stroke:#FFFFFF;stroke-width:5;stroke-linecap:round;stroke-miterlimit:10;}
	.st12{fill:#3FB1B5;}
	.st13{fill:#FFFFFF;stroke:#66B0F0;stroke-width:6;stroke-miterlimit:10;}
	.st14{fill:none;stroke:#FFCF2D;stroke-width:5;stroke-miterlimit:10;}
	.st15{fill:#A0505A;}
	.st16{fill:#73325A;}
	.st17{fill:#FEB040;}
	.st18{fill:#E57281;}
	.st19{fill:#9A3B82;}
	.st20{fill:#FFFFFF;stroke:#FEB040;stroke-width:4;stroke-miterlimit:10;}
	.st21{fill:none;stroke:#FE5244;stroke-width:6;stroke-miterlimit:10;}
	.st22{fill:none;stroke:#FFFFFF;stroke-width:6;stroke-linecap:round;stroke-miterlimit:10;}
	.st23{fill:none;stroke:#73325A;stroke-width:5;stroke-linecap:round;stroke-miterlimit:10;}
	.st24{fill:#FFCF2D;stroke:#FFFFFF;stroke-width:5;stroke-miterlimit:10;}
</style>
<g id="Layer_2" class="st0">
	<rect x="2572.3" y="-15.9" class="st1" width="5015.1" height="3523.4"/>
</g>
<g id="Слой_1">
	<g id="FLOOR">
		<line class="st2" x1="6755.6" y1="3288.5" x2="3277.3" y2="3288.5"/>
		<line class="st2" x1="3581.2" y1="3351.5" x2="5573" y2="3351.5"/>
	</g>
	<g id="TABLE">
		<path class="st3" d="M6576.4,2506.8h-556.3c-26.3,0-47.7,21.4-47.7,47.7v734H6624v-734C6624.1,2528.2,6602.7,2506.8,6576.4,2506.8
			z"/>
		<path class="st4" d="M6576.4,2506.8h-556.3c-26.3,0-47.7,21.4-47.7,47.7v734H6624v-734C6624.1,2528.2,6602.7,2506.8,6576.4,2506.8
			z"/>
		<rect x="5897.4" y="1682.2" class="st4" width="802.8" height="1606.2"/>
		<polyline class="st4" points="6721.2,1481.1 3968.2,1481.1 3968.2,1682.2 6876,1682.2 		"/>
		<path class="st4" d="M6576.4,2059.7h-555.2c-26.3,0-47.7-21.4-47.7-47.7v-196c0-26.3,21.4-47.7,47.7-47.7h555.2
			c26.3,0,47.7,21.4,47.7,47.7v196.2C6624.1,2038.4,6602.7,2059.7,6576.4,2059.7z"/>
		<path class="st4" d="M6576.4,2414.6h-555.2c-26.3,0-47.7-21.4-47.7-47.7v-196c0-26.3,21.4-47.7,47.7-47.7h555.2
			c26.3,0,47.7,21.4,47.7,47.7v196C6624.1,2393.3,6602.7,2414.6,6576.4,2414.6z"/>
		<circle class="st2" cx="6300.7" cy="1911.5" r="38.2"/>
		<circle class="st2" cx="6300.7" cy="2267.5" r="38.2"/>
	</g>
	<g id="BACKET">
		<g>
			<polygon class="st5" points="6539.1,2751.3 6538.3,2756.3 6538,2759.2 6525.7,2837.2 6525.7,2837.2 6524.4,2845.5 6524.4,2845.5 
				6518.9,2881 6516.9,2893.5 6516.9,2893.5 6511.8,2926.4 6510.5,2934.7 6497.9,3015.4 6497.9,3015.7 6496.6,3024.1 6495.9,3027.8 
				6483.9,3104.9 6482.6,3113.3 6482.6,3113.3 6477,3149.6 6477,3149.7 6475,3162.2 6469.9,3194.1 6469.9,3194.1 6468.6,3202.5 
				6456,3283.4 6455.9,3283.9 6455.9,3283.9 6455.3,3287.7 6455.2,3288.5 6124.9,3288.5 6124.8,3287.6 6124.2,3284.3 6124.1,3283.2 
				6124.1,3283.2 6111.4,3202.4 6110.1,3193.9 6105.2,3162.5 6103.3,3149.9 6097.6,3113 6096.3,3104.7 6084.3,3028.2 6083.6,3023.8 
				6082.3,3015.6 6082.3,3015.5 6069.6,2934.5 6068.3,2926.1 6063.2,2893.8 6061.4,2881.4 6055.7,2845.3 6054.4,2836.9 
				6042.3,2759.6 6041,2751.3 			"/>
			<path class="st6" d="M6458.4,3292.1h-336.6l-1.4-8.7l-83.7-535.8h506.7L6458.4,3292.1z M6128,3284.9h324l82.7-529.8h-489.6
				L6128,3284.9z"/>
		</g>
		<path class="st6" d="M6543.7,2751.3c0,1.6-0.2,3.4-0.8,5.1c-4,12.3-22.3,23.7-51.1,33.1c-2.1,0.7-4.2,1.3-6.3,2
			c-18.6,5.5-40.8,10.3-65.8,14c-2.4,0.4-4.7,0.7-7.2,1.1c-22.1,3.1-46.2,5.3-71.7,6.6c-2.6,0.1-5.1,0.2-7.6,0.4
			c-14,0.6-28.4,0.9-43.1,0.9c-11.3,0-22.4-0.2-33.4-0.6c-2.7-0.1-5.4-0.2-8.1-0.4c-29.4-1.2-57.1-3.6-82.3-7.2
			c-3.1-0.5-6-0.8-8.9-1.3c-42.7-6.5-77-16-98-27.4c-12.2-6.6-19.9-13.8-22.3-21.3l-0.7-4.9c0-34.8,113.5-62.9,253.6-62.9
			c139.3,0,252.3,27.9,253.6,62.4C6543.7,2750.9,6543.7,2751,6543.7,2751.3z"/>
		<g>
			<g>
				<g>
					<path class="st6" d="M6456.2,3283.6v4.7l-0.8-0.6l-0.1,0.7h-3.1l-37.5-48.4l-3.9-5.1l-37.7-48.7l-3.9-5.1l-37.7-48.7l-3.9-5.1
						l-37.7-48.7l-3.9-5.1l-37.7-48.7l-3.9-5.1l-37.6-48.7l-3.9-5.1l-37.7-48.7l-3.9-5.1l-37.6-48.7l-3.9-5.1l-37.6-48.7l-3.9-5.1
						l-36.1-46.5l-0.6-3.4c2.4,7.4,9.9,14.5,21.9,20.9l18.6,24l3.9,5.1l37.7,48.7l3.9,5.1l37.7,48.7l3.9,5.1l37.7,48.7l3.9,5.1
						l37.7,48.7l3.9,5.1l37.7,48.7l3.9,5.1l37.7,48.7l3.9,5.1l37.7,48.7l3.9,5.1l37.7,48.7l3.9,5.1l37.5,48.4L6456.2,3283.6z"/>
				</g>
			</g>
			<g>
				<g>
					<path class="st6" d="M6469.9,3194.1L6469.9,3194.1l-1.3,8.3l-12.5-16.1l-3.9-5.1l-37.7-48.7l-3.9-5.1l-37.7-48.7l-3.9-5.1
						l-37.7-48.7l-3.9-5.1l-37.7-48.7l-3.9-5.1l-37.4-48.2l-3.9-5.1l-37.7-48.7l-3.9-5.1l-37.7-48.7l-3.9-5.1l-1.6-2.1
						c2.8,0.5,5.8,0.8,8.7,1.3l0.6,0.8l37.7,48.7l3.9,5.1l37.7,48.7l3.9,5.1l37.7,48.7l3.9,5.1l37.7,48.7l3.9,5.1l37.7,48.7l3.9,5.1
						l37.7,48.7l3.9,5.1l37.7,48.7l3.9,5.1L6469.9,3194.1z"/>
				</g>
			</g>
			<g>
				<g>
					<path class="st6" d="M6483.9,3104.9l-1.3,8.3l-26.4-34.1l-3.9-5.1l-37.7-48.7l-3.9-5.1l-37.7-48.7l-3.9-5.1l-37.7-48.7
						l-3.9-5.1l-37.7-48.7l-3.9-5.1l-36.8-47.5c2.7,0.1,5.3,0.2,8,0.4l32.7,42.1l3.9,5.1l37.7,48.7l3.9,5.1l37.7,48.7l3.9,5.1
						l37.7,48.7l3.9,5.1l37.7,48.7l3.9,5.1L6483.9,3104.9z"/>
				</g>
			</g>
			<g>
				<g>
					<path class="st6" d="M6497.9,3015.7l-1.3,8.3l-2.7-3.5l-37.7-48.7l-3.9-5.1l-37.7-48.7l-3.9-5.1l-37.7-48.7l-3.9-5.1
						l-36.8-47.5c2.5-0.1,5.1-0.2,7.5-0.4l33.1,42.8l3.9,5.1l37.7,48.7l3.9,5.1l37.7,48.7l3.9,5.1l37.7,48.7L6497.9,3015.7z"/>
				</g>
			</g>
			<g>
				<g>
					<polygon class="st6" points="6209.2,3286.6 6206.9,3288.4 6206.8,3288.5 6202.9,3288.5 6165.3,3240.1 6161.4,3235 
						6123.8,3186.4 6119.9,3181.4 6105.2,3162.5 6103.3,3149.9 6123.8,3176.4 6127.7,3181.4 6165.3,3230 6169.1,3235 6206.9,3283.7 
											"/>
				</g>
			</g>
			<g>
				<g>
					<polygon class="st6" points="6126,3286.6 6124.8,3287.6 6124.2,3284.3 					"/>
				</g>
			</g>
			<g>
				<g>
					<polygon class="st6" points="6292.3,3286.6 6290,3288.4 6289.8,3288.5 6286,3288.5 6248.5,3240.1 6244.6,3235 6206.9,3186.4 
						6203,3181.4 6165.3,3132.8 6161.4,3127.8 6161.4,3127.7 6123.8,3079.2 6119.9,3074.1 6084.3,3028.2 6083.6,3023.8 
						6082.3,3015.6 6086,3020.5 6123.8,3069.2 6127.7,3074.1 6165.3,3122.8 6169.1,3127.8 6206.9,3176.4 6210.7,3181.4 6248.5,3230 
						6252.4,3235 6290,3283.7 					"/>
				</g>
			</g>
			<g>
				<g>
					<polygon class="st6" points="6375.4,3286.6 6373.1,3288.4 6372.9,3288.5 6369.1,3288.5 6331.6,3240.1 6327.7,3235 6290,3186.4 
						6286.1,3181.4 6248.5,3132.8 6244.6,3127.8 6206.9,3079.2 6203,3074.1 6165.3,3025.6 6161.4,3020.5 6123.8,2971.9 
						6119.9,2966.9 6082.2,2918.3 6078.3,2913.3 6063.2,2893.8 6061.4,2881.4 6082.2,2908.3 6086,2913.3 6123.8,2961.9 
						6127.7,2966.9 6165.3,3015.5 6169.1,3020.5 6206.9,3069.2 6210.7,3074.1 6248.5,3122.8 6252.4,3127.8 6290,3176.4 
						6293.8,3181.4 6331.6,3230 6335.5,3235 6373.1,3283.7 					"/>
				</g>
			</g>
			<g>
				<g>
					<path class="st6" d="M6511.8,2926.4l-1.3,8.3l-12.7-16.5l-3.9-5.1l-37.7-48.7l-3.9-5.1l-37.7-48.7l-3.9-5.1l-0.5-0.6
						c2.4-0.4,4.7-0.7,6.9-1.1l1.3,1.6l37.7,48.7l3.9,5.1l37.7,48.7l3.9,5.1L6511.8,2926.4z"/>
				</g>
			</g>
			<g>
				<g>
					<path class="st6" d="M6525.7,2837.2L6525.7,2837.2l-1.3,8.3l-26.7-34.4l-3.9-5.1l-11.9-15.4c2.1-0.6,4.2-1.3,6.2-2l9.5,12.3
						l3.9,5.1L6525.7,2837.2z"/>
				</g>
			</g>
			<g>
				<g>
					<path class="st6" d="M6542.5,2753.1l-3.3,4.2l-0.9-1.2l0,0c0.6-1.6,0.8-3.3,0.8-4.9c0-0.2,0-0.4,0-0.6l0.1-0.1L6542.5,2753.1z"
						/>
				</g>
			</g>
		</g>
		<g>
			<g>
				<g>
					<polygon class="st6" points="6518.9,2881 6516.9,2893.5 6516.9,2893.5 6501.6,2913.3 6497.8,2918.3 6460,2966.9 6456.2,2971.9 
						6418.5,3020.5 6414.7,3025.6 6376.9,3074.1 6373.1,3079.2 6335.5,3127.8 6331.6,3132.8 6293.8,3181.4 6290,3186.4 6252.4,3235 
						6248.5,3240.1 6210.9,3288.5 6207,3288.5 6206.9,3288.4 6204.6,3286.6 6206.9,3283.7 6244.6,3235 6248.5,3230 6286.1,3181.4 
						6290,3176.4 6327.7,3127.8 6331.6,3122.8 6369.2,3074.1 6373.1,3069.2 6410.8,3020.5 6414.7,3015.5 6452.3,2966.9 
						6456.2,2961.9 6493.9,2913.3 6497.8,2908.3 					"/>
				</g>
			</g>
			<g>
				<g>
					<path class="st6" d="M6538,2759.2l-36.3,46.9l-3.9,5.1l-37.7,48.7l-3.9,5.1l-37.7,48.7l-3.9,5.1l-37.7,48.7l-3.9,5.1
						l-37.5,48.2l-3.9,5.1l-37.7,48.7l-3.9,5.1l-37.7,48.7l-3.9,5.1l-37.7,48.7l-3.9,5.1l-37.7,48.7l-3.9,5.1l-37.5,48.4h-2.8
						l-0.1-0.9l-0.5-3.3l-0.5-0.6l0.4-0.5l0,0l37.4-48.2l3.9-5.1l37.7-48.7l3.9-5.1l37.7-48.7l3.9-5.1l37.7-48.7l3.9-5.1l37.7-48.7
						l3.9-5.1l37.7-48.7l3.9-5.1l37.7-48.7l3.9-5.1l37.7-48.7l3.9-5.1l37.6-48.7l3.9-5.1l18.5-23.9c12.1-6.5,19.7-13.5,22.2-21
						L6538,2759.2z"/>
				</g>
			</g>
			<g>
				<g>
					<path class="st6" d="M6420.1,2804l-1.6,2.1l-3.9,5.1l-37.7,48.7l-3.9,5.1l-37.7,48.7l-3.9,5.1l-37.7,48.7l-3.9,5.1L6252,3021
						l-3.9,5.1l-37.7,48.7l-3.9,5.1l-37.7,48.7l-3.9,5.1l-37.7,48.7l-3.9,5.1l-12.3,15.9l-1.3-8.3l9.8-12.6l3.9-5.1l37.6-48.7l0,0
						l3.9-5.1l37.7-48.7l3.9-5.1l37.6-48.7l3.9-5.1l37.7-48.7l3.9-5.1l37.7-48.7l3.9-5.1l37.7-48.7l3.9-5.1l37.7-48.7l0.6-0.8
						c2-0.2,4-0.6,5.9-0.8C6418.2,2804.3,6419.1,2804.1,6420.1,2804z"/>
				</g>
			</g>
			<g>
				<g>
					<path class="st6" d="M6330.6,2812.3l-36.8,47.4l-3.9,5.1l-37.7,48.7l-3.9,5.1l-37.7,48.7l-3.9,5.1l-37.7,48.7l-3.9,5.1
						l-37.7,48.7l-3.9,5.1l-26.2,33.8l-1.3-8.3l23.6-30.6l3.9-5.1l37.7-48.7l3.9-5.1l37.7-48.7l3.9-5.1l37.7-48.7l3.9-5.1l37.7-48.7
						l3.9-5.1l32.7-42.1C6325.2,2812.5,6327.9,2812.4,6330.6,2812.3z"/>
				</g>
			</g>
			<g>
				<g>
					<polygon class="st6" points="6477,3149.7 6475,3162.2 6460,3181.4 6456.2,3186.4 6418.5,3235 6414.7,3240.1 6377.1,3288.5 
						6373.2,3288.5 6373.1,3288.4 6370.8,3286.6 6373.1,3283.7 6410.8,3235 6414.7,3230 6452.3,3181.4 6456.2,3176.4 					"/>
				</g>
			</g>
			<g>
				<g>
					<polygon class="st6" points="6495.9,3027.8 6460,3074.1 6456.2,3079.2 6418.5,3127.8 6414.7,3132.8 6376.9,3181.4 
						6373.1,3186.4 6335.5,3235 6331.6,3240.1 6294,3288.5 6290.1,3288.5 6290,3288.4 6287.7,3286.6 6290,3283.7 6327.7,3235 
						6331.6,3230 6369.2,3181.4 6373.1,3176.4 6410.8,3127.8 6414.7,3122.8 6452.3,3074.1 6456.2,3069.2 6493.9,3020.5 
						6497.8,3015.5 6497.9,3015.4 6497.9,3015.7 6496.6,3024.1 					"/>
				</g>
			</g>
			<g>
				<g>
					<path class="st6" d="M6247.5,2812.1l-36.8,47.5l-3.9,5.1l-37.7,48.7l-3.9,5.1l-37.7,48.7l-3.9,5.1l-37.7,48.7l-2.5,3.3
						l-1.3-8.1l-0.1-0.1l0.1-0.1l37.6-48.5l3.9-5.1l37.6-48.7l3.9-5.1l37.7-48.7l3.9-5.1l33.1-42.8
						C6242.6,2811.9,6245.1,2812,6247.5,2812.1z"/>
				</g>
			</g>
			<g>
				<g>
					<path class="st6" d="M6169.7,2805.4l-0.5,0.7l-3.9,5.1l-37.7,48.7l-3.9,5.1l-37.7,48.7l-3.9,5.1l-12.6,16.2l-1.3-8.3l10-12.9
						l3.9-5.1l37.6-48.7l3.9-5.1l37.7-48.7l1.3-1.6c1.9,0.2,3.9,0.6,5.9,0.8L6169.7,2805.4z"/>
				</g>
			</g>
			<g>
				<g>
					<path class="st6" d="M6098,2790.6l-12,15.4l-3.9,5.1l-26.6,34.2l-1.3-8.3l24-30.9l3.9-5.1l9.6-12.3
						C6093.8,2789.3,6095.9,2790,6098,2790.6z"/>
				</g>
			</g>
		</g>
		<g>
			<path class="st7" d="M6563.3,2682.3h-108.5v-33h65.8C6541.3,2649.2,6558.4,2663.3,6563.3,2682.3z"/>
			<path class="st7" d="M6521.4,2649.2c-30.8,0.4-57.7,20.9-65.9,50.7l-25,90.9c-3.5,0.6-7.2,1.2-10.8,1.6c-2.4,0.4-4.7,0.7-7.2,1.1
				c-22.1,3.1-46.2,5.3-71.7,6.6c-2.6,0.1-5.1,0.2-7.6,0.4c-14,0.6-28.4,0.9-43.1,0.9c-11.3,0-22.4-0.2-33.4-0.6
				c-2.7-0.1-5.4-0.2-8.1-0.4c-1.1,0-2.1-0.1-3.2-0.1l27.7-100.4c8.2-30,35.5-50.7,66.6-50.7H6521.4z"/>
		</g>
	</g>
	<g id="LAMP">
		<polygon class="st8" points="6447.1,690.8 6724.6,1481.1 5708.4,1481.1 5978.5,690.8 		"/>
		<g>
			<path class="st2" d="M6215,596.6c0-32.9,26.7-59.6,59.6-59.6h34.4c32.9,0,59.6,26.7,59.6,59.6v771.1"/>
			<path class="st9" d="M6448.6,1455.9v23.9h-251.3v-23.9c0-20.3,6.9-39.1,18.6-54.1c16.1-20.7,41.4-34.1,69.6-34.1h74.9
				c1.2,0,2.5,0,3.6,0.1C6411.1,1369.8,6448.6,1408.4,6448.6,1455.9z"/>
			<path class="st10" d="M6504.5,694.1H5923v-18.2c0-43.6,35.4-78.9,78.9-78.9h423.7c43.6,0,78.9,35.4,78.9,78.9L6504.5,694.1
				L6504.5,694.1z"/>
			<line class="st11" x1="6504.5" y1="679.5" x2="5923" y2="679.5"/>
			<path class="st5" d="M6443.7,694.1c0,20.8-12.9,37.7-29,37.7h-406.9c-16,0-29-16.9-29-37.7H6443.7z"/>
			<path class="st9" d="M6368.6,1390.8c0,37.7-34.4,68.4-76.9,68.4c-38.2,0-69.9-24.8-75.8-57.4c16.1-20.7,41.4-34.1,69.6-34.1h74.9
				c1.2,0,2.5,0,3.6,0.1C6367.1,1375.1,6368.6,1382.8,6368.6,1390.8z"/>
			<path class="st10" d="M6293.8,1351.7v36.9c0,7.5-6.9,13.6-15.4,13.6s-15.4-6.1-15.4-13.6v-36.9h0.2c1.4,6.5,7.6,11.4,15,11.4
				s13.6-4.9,15-11.4H6293.8z"/>
			<path class="st9" d="M6290.6,1350.4c0,0.8-0.1,1.6-0.2,2.5c-1.1,5.9-6,10.2-12,10.2c-5.9,0-10.8-4.3-12-10.2
				c-0.1-0.8-0.2-1.6-0.2-2.5c0-7.1,5.4-12.7,12.2-12.7C6285,1337.7,6290.6,1343.4,6290.6,1350.4z"/>
		</g>
	</g>
	<g id="BOOKS">
		<rect x="5850" y="945.4" class="st12" width="40.2" height="535.7"/>
		<path class="st7" d="M5833.2,1481.1h-68.9c-7.3,0-13.2-5.9-13.2-13.2v-398.2c0-7.3,5.9-13.2,13.2-13.2h68.9
			c7.3,0,13.2,5.9,13.2,13.2v398.2C5846.4,1475.2,5840.5,1481.1,5833.2,1481.1z"/>
		<path class="st2" d="M6054.8,1472.5h-79.1c-5.8,0-10.7-4.1-11.8-9.8l-71-368.8c-1.4-7.4,4.2-14.2,11.8-14.2h79.1
			c5.8,0,10.7,4.1,11.8,9.8l71,368.8C6067.9,1465.7,6062.3,1472.5,6054.8,1472.5z"/>
		<path class="st10" d="M5735.4,1481.1h-372.6c-8.7,0-15.7-7.1-15.7-15.7V1389c0-8.7,7.1-15.7,15.7-15.7h372.6
			c8.7,0,15.7,7.1,15.7,15.7v76.3C5751.2,1474,5744.1,1481.1,5735.4,1481.1z"/>
	</g>
	<g id="NOTES">
		<g>
			<path class="st7" d="M4340.2,173.6v243.1c0,47.6-38.7,86.3-86.3,86.3h-269.5c47.6,0,86.3-38.6,86.3-86.3V173.6H4340.2z"/>
			<rect x="4194" y="150.1" class="st10" width="21.7" height="51.8"/>
			<g>
				<g>
					<path class="st8" d="M4261.8,266c-3.1,0-6.1-1.2-8.6-3.4l-9-8c-2.8-2.5-6.6-2.5-9.4,0l-8.6,7.6c-5.1,4.5-12.1,4.5-17.3,0
						l-7.9-6.9c-2.8-2.5-6.6-2.5-9.4,0l-7.3,6.5c-5.1,4.5-12.1,4.5-17.3,0l-6-5.3c-2.8-2.5-6.6-2.5-9.4,0l-6.5,5.8
						c-5.1,4.5-12.1,4.5-17.3,0l-6-5.3c-2.8-2.5-6.6-2.5-9.4,0c-1.2,1.1-3.1,0.9-4.1-0.2c-1.1-1.2-0.9-3.1,0.2-4.1
						c5.1-4.5,12.1-4.5,17.3,0l6,5.3c2.8,2.5,6.6,2.5,9.4,0l6.5-5.8c5.1-4.5,12.1-4.5,17.3,0l6,5.3c2.8,2.5,6.6,2.5,9.4,0l7.3-6.5
						c5.1-4.5,12.1-4.5,17.3,0l7.9,6.9c2.8,2.5,6.6,2.5,9.4,0l8.6-7.6c5.1-4.5,12.1-4.5,17.3,0l9,8c2.8,2.5,6.6,2.5,9.4,0l9.4-8.3
						c5.1-4.5,12.1-4.5,17.3,0c1.2,1.1,1.3,2.9,0.2,4.1c-1.1,1.2-2.9,1.3-4.1,0.2c-2.8-2.5-6.6-2.5-9.4,0l-9.4,8.3
						C4267.8,264.8,4264.9,266,4261.8,266z"/>
				</g>
				<g>
					<path class="st8" d="M4261.8,314.3c-3.1,0-6.1-1.2-8.6-3.4l-9-8c-2.8-2.5-6.6-2.5-9.4,0l-8.6,7.6c-5.1,4.5-12.1,4.5-17.3,0
						l-7.9-6.9c-2.8-2.5-6.6-2.5-9.4,0l-7.3,6.5c-5.1,4.5-12.1,4.5-17.3,0l-6-5.3c-2.8-2.5-6.6-2.5-9.4,0l-6.5,5.8
						c-5.1,4.5-12.1,4.5-17.3,0l-6-5.3c-2.8-2.5-6.6-2.5-9.4,0c-1.2,1.1-3.1,0.9-4.1-0.2c-1.1-1.2-0.9-3.1,0.2-4.1
						c5.1-4.5,12.1-4.5,17.3,0l6,5.3c2.8,2.5,6.6,2.5,9.4,0l6.5-5.8c5.1-4.5,12.1-4.5,17.3,0l6,5.3c2.8,2.5,6.6,2.5,9.4,0l7.3-6.5
						c5.1-4.5,12.1-4.5,17.3,0l7.9,6.9c2.8,2.5,6.6,2.5,9.4,0l8.6-7.6c5.1-4.5,12.1-4.5,17.3,0l9,8c2.8,2.5,6.6,2.5,9.4,0l9.4-8.3
						c5.1-4.5,12.1-4.5,17.3,0c1.2,1.1,1.3,2.9,0.2,4.1c-1.1,1.2-2.9,1.3-4.1,0.2c-2.8-2.5-6.6-2.5-9.4,0l-9.4,8.3
						C4267.8,313.3,4264.9,314.3,4261.8,314.3z"/>
				</g>
				<g>
					<path class="st8" d="M4261.8,362.6c-3.1,0-6.1-1.2-8.6-3.4l-9-8c-2.8-2.5-6.6-2.5-9.4,0l-8.6,7.6c-5.1,4.5-12.1,4.5-17.3,0
						l-7.9-6.9c-2.8-2.5-6.6-2.5-9.4,0l-7.3,6.5c-5.1,4.5-12.1,4.5-17.3,0l-6-5.3c-2.8-2.5-6.6-2.5-9.4,0l-6.5,5.8
						c-5.1,4.5-12.1,4.5-17.3,0l-6-5.3c-2.8-2.5-6.6-2.5-9.4,0c-1.2,1.1-3.1,0.9-4.1-0.2c-1.1-1.2-0.9-3.1,0.2-4.1
						c5.1-4.5,12.1-4.5,17.3,0l6,5.3c2.8,2.5,6.6,2.5,9.4,0l6.5-5.8c5.1-4.5,12.1-4.5,17.3,0l6,5.3c2.8,2.5,6.6,2.5,9.4,0l7.3-6.5
						c5.1-4.5,12.1-4.5,17.3,0l7.9,6.9c2.8,2.5,6.6,2.5,9.4,0l8.6-7.6c5.1-4.5,12.1-4.5,17.3,0l9,8c2.8,2.5,6.6,2.5,9.4,0l9.4-8.3
						c5.1-4.5,12.1-4.5,17.3,0c1.2,1.1,1.3,2.9,0.2,4.1s-2.9,1.3-4.1,0.2c-2.8-2.5-6.6-2.5-9.4,0l-9.4,8.3
						C4267.8,361.6,4264.9,362.6,4261.8,362.6z"/>
				</g>
				<g>
					<path class="st8" d="M4261.8,411c-3.1,0-6.1-1.2-8.6-3.4l-9-8c-2.8-2.5-6.6-2.5-9.4,0l-8.6,7.6c-5.1,4.5-12.1,4.5-17.3,0
						l-7.9-6.9c-2.8-2.5-6.6-2.5-9.4,0l-7.3,6.5c-5.1,4.5-12.1,4.5-17.3,0l-6-5.3c-2.8-2.5-6.6-2.5-9.4,0l-6.5,5.8
						c-5.1,4.5-12.1,4.5-17.3,0l-6-5.3c-2.8-2.5-6.6-2.5-9.4,0c-1.2,1.1-3.1,0.9-4.1-0.2c-1.1-1.2-0.9-3.1,0.2-4.1
						c5.1-4.5,12.1-4.5,17.3,0l6,5.3c2.8,2.5,6.6,2.5,9.4,0l6.5-5.8c5.1-4.5,12.1-4.5,17.3,0l6,5.3c2.8,2.5,6.6,2.5,9.4,0l7.3-6.5
						c5.1-4.5,12.1-4.5,17.3,0l7.9,6.9c2.8,2.5,6.6,2.5,9.4,0l8.6-7.6c5.1-4.5,12.1-4.5,17.3,0l9,8c2.8,2.5,6.6,2.5,9.4,0l9.4-8.3
						c5.1-4.5,12.1-4.5,17.3,0c1.2,1.1,1.3,2.9,0.2,4.1c-1.1,1.2-2.9,1.3-4.1,0.2c-2.8-2.5-6.6-2.5-9.4,0l-9.4,8.3
						C4267.8,409.9,4264.9,411,4261.8,411z"/>
				</g>
			</g>
		</g>
		<g>
			<rect x="4429.2" y="173.6" class="st6" width="188.5" height="188.5"/>
			
				<rect x="4406.8" y="166.4" transform="matrix(0.7778 -0.6286 0.6286 0.7778 875.1002 2829.5085)" class="st8" width="64.1" height="21.7"/>
			
				<rect x="4598.5" y="145.2" transform="matrix(0.6286 -0.7778 0.7778 0.6286 1574.2588 3650.8184)" class="st8" width="21.7" height="64.1"/>
			<g>
				<rect x="4463.5" y="218.3" class="st5" width="114.4" height="7.1"/>
			</g>
			<g>
				<rect x="4463.5" y="248.7" class="st5" width="114.4" height="7.1"/>
			</g>
			<g>
				<rect x="4463.5" y="279.3" class="st5" width="114.4" height="7.1"/>
			</g>
			<g>
				<rect x="4463.5" y="309.7" class="st5" width="114.4" height="7.1"/>
			</g>
		</g>
	</g>
	<g id="COMPUTER">
		<g>
			<polygon class="st13" points="5338.3,1481.1 4898.8,1481.1 4983.9,1293 4996.4,1265.4 5240.7,1265.4 5275.1,1341.2 			"/>
			<polygon class="st6" points="5275.1,1341.2 4983.9,1293 4996.4,1265.4 5240.7,1265.4 			"/>
		</g>
		<path class="st13" d="M5636.5,1265.4H4602.1c-38,0-68.6-30.8-68.6-68.6V521.5c0-38,30.8-68.6,68.6-68.6h1034.4
			c38,0,68.6,30.8,68.6,68.6v675.1C5705.1,1234.6,5674.3,1265.4,5636.5,1265.4z"/>
		<g>
			<path class="st6" d="M5326.5,1217.7h-414.7c-20.2,0-36.6-16.3-36.6-36.6v-50.2c0-20.2,16.3-36.6,36.6-36.6h414.7
				c20.2,0,36.6,16.3,36.6,36.6v50.2C5363.1,1201.3,5346.6,1217.7,5326.5,1217.7z"/>
			<g>
				<g>
					<path class="st5" d="M5217.7,1184.2h-28c-6.9,0-12.6-5.6-12.6-12.6v-21.9c0-6.9,5.6-12.6,12.6-12.6h28
						c6.9,0,12.6,5.6,12.6,12.6v21.9C5230.3,1178.5,5224.6,1184.2,5217.7,1184.2z"/>
				</g>
				<g>
					<path class="st5" d="M5253.3,1180.5l-10.3-6.6c-2.8-1.8-4.6-4.9-4.6-8.3v-9.9c0-3.4,1.8-6.6,4.6-8.3l10.3-6.6
						c2.5-1.5,5.6,0.2,5.6,3.1v33.5C5259.1,1180.3,5255.8,1182.1,5253.3,1180.5z"/>
				</g>
			</g>
			<g>
				<g>
					<path class="st5" d="M5111.7,1173.1h-2.6c-10.2,0-18.6-8.3-18.6-18.6v-10.9c0-0.9,0.8-1.8,1.8-1.8h36.1c0.9,0,1.8,0.8,1.8,1.8
						v10.9C5130.3,1164.8,5121.9,1173.1,5111.7,1173.1z M5094.1,1145.4v9.2c0,8.2,6.7,15,15,15h2.6c8.2,0,15-6.7,15-15v-9.2H5094.1z
						"/>
				</g>
				<g>
					<path class="st5" d="M5110.4,1193.5c-0.9,0-1.8-0.8-1.8-1.8v-13.3c0-0.9,0.8-1.8,1.8-1.8c0.9,0,1.8,0.8,1.8,1.8v13.3
						C5112.2,1192.6,5111.3,1193.5,5110.4,1193.5z"/>
				</g>
				<g>
					<path class="st5" d="M5119.7,1193.5h-18.5c-0.9,0-1.8-0.8-1.8-1.8s0.8-1.8,1.8-1.8h18.5c0.9,0,1.8,0.8,1.8,1.8
						S5120.6,1193.5,5119.7,1193.5z"/>
				</g>
				<g>
					<path class="st5" d="M5111.2,1164.9h-1.6c-5.9,0-10.6-4.7-10.6-10.6v-21.4c0-5.9,4.7-10.6,10.6-10.6h1.6
						c5.9,0,10.6,4.7,10.6,10.6v21.4C5121.8,1160.2,5117.1,1164.9,5111.2,1164.9z"/>
				</g>
			</g>
			<g>
				<g>
					<path class="st5" d="M5003.1,1151.6l-0.1,0.1c-2.2,2.7-1.5,6.8,1.4,9.3l10.8,8.7c2.9,2.4,7.2,2.1,9.4-0.6l0.1-0.1
						c2.2-2.7,6.5-2.8,9.3-0.4l9.8,8.8c3.1,2.8,3.1,7.5,0,9.6c-10.2,7.2-23.5,4.6-34.4-4.2l-16.5-13.3
						c-10.9-8.9-16.2-21.4-11.4-32.9c1.5-3.5,6.1-4.5,9.4-2l10.7,7.8C5004.5,1144.8,5005.2,1148.9,5003.1,1151.6z"/>
				</g>
				<g>
					<path class="st5" d="M5031.8,1158.4c-0.9,0-1.6-0.7-1.8-1.6c-0.6-8.5-7.9-14.9-16.3-14.3c-0.9,0-1.8-0.7-1.9-1.6
						s0.7-1.8,1.6-1.9c10.5-0.7,19.4,7.3,20.1,17.6C5033.6,1157.5,5032.9,1158.3,5031.8,1158.4
						C5031.9,1158.4,5031.9,1158.4,5031.8,1158.4z"/>
				</g>
				<g>
					<path class="st5" d="M5042.8,1156.7c-0.9,0-1.6-0.7-1.8-1.6c-0.5-7.1-3.6-13.6-9-18.3c-5.4-4.7-12.2-7.1-19.3-6.6
						c-0.9,0-1.8-0.7-1.9-1.6s0.7-1.8,1.6-1.9c8-0.5,15.7,2.1,21.9,7.4c6.1,5.3,9.6,12.7,10.2,20.7
						C5044.7,1155.9,5043.9,1156.7,5042.8,1156.7C5042.9,1156.7,5042.9,1156.7,5042.8,1156.7z"/>
				</g>
			</g>
		</g>
		<g>
			<circle class="st14" cx="5440.3" cy="504.2" r="12.2"/>
			<circle class="st14" cx="5490.3" cy="504.2" r="12.2"/>
			<circle class="st14" cx="5540.3" cy="504.2" r="12.2"/>
		</g>
		<path class="st2" d="M5075.7,1064.3h-368.4c-11.3,0-20.3-9.2-20.3-20.3V846.7c0-11.3,9.2-20.3,20.3-20.3h368.4
			c11.3,0,20.3,9.2,20.3,20.3V1044C5096.1,1055.1,5087,1064.3,5075.7,1064.3z"/>
		<g>
			<path class="st12" d="M5540.3,1064.3H5172c-11.3,0-20.3-9.2-20.3-20.3V846.7c0-11.3,9.2-20.3,20.3-20.3h368.4
				c11.3,0,20.3,9.2,20.3,20.3V1044C5560.7,1055.1,5551.6,1064.3,5540.3,1064.3z"/>
			<g>
				<path class="st10" d="M5470.8,1063.7H5230c24.3-30,61.5-49.2,103.1-49.2h34.6C5409.3,1014.6,5446.4,1033.7,5470.8,1063.7z"/>
				<path class="st5" d="M5342.9,1014.6c-2.4,17.7-17.5,31.4-35.8,31.4c-13.5,0-25.3-7.4-31.5-18.3c17.4-8.3,36.9-13,57.5-13H5342.9
					z"/>
				<path class="st5" d="M5414,1022.8c-5.3,13.5-18.3,23-33.7,23c-18.3,0-33.5-13.6-35.8-31.4h23.4
					C5384,1014.6,5399.5,1017.4,5414,1022.8z"/>
				<path class="st15" d="M5387.5,962.2v53.4c0,8.3-16.7,15-37.1,15c-3.8,0-7.4-0.2-10.8-0.6c-15.3-1.9-26.3-7.6-26.3-14.5v-53.4
					H5387.5z"/>
				<path class="st16" d="M5382.6,973.1c0,23.2-20.2,51.2-43,56.8c-15.3-1.9-26.3-7.6-26.3-14.5V962h68.2L5382.6,973.1z"/>
				<path class="st15" d="M5406.6,955.3v1.3c0,9.1-7.4,16.5-16.5,16.5h-15.7c-7.2,15.4-22.8,26-40.9,26h-3.1
					c-20.2,0-36.6-16.3-36.6-36.6v-37.7c23.4,1.5,53.1-18.9,53.1-18.9c9.8,37.7,37.6,37.3,50.5,34.8
					C5402.8,943.4,5406.6,949,5406.6,955.3z"/>
				<g>
					<path class="st16" d="M5383.4,961.1c-0.9,0-1.8-0.8-1.8-1.8c0-7.5,6.1-13.6,13.6-13.6c0.9,0,1.8,0.8,1.8,1.8s-0.8,1.8-1.8,1.8
						c-5.5,0-10.1,4.5-10.1,10.1C5385.2,960.3,5384.4,961.1,5383.4,961.1z"/>
				</g>
				<path class="st8" d="M5387.5,973.1h2.6c9,0,16.5-7.4,16.5-16.5v-1.3c0-6.5-3.6-12-9.1-14.7c-3.5,0.7-8.3,1.2-13.5,0.8
					c-13.4-1.1-30-8.3-37-35.6c0,0-29.7,20.5-53.1,18.9c-4.3-0.2-8.5-1.3-12.1-3.4c-19.4-11,27.5-62.8,81.3-55
					c43,6.2,42.1,57.7,41.3,69.9c2.1-0.2,4.2-0.4,6.3-0.4c31.5,0,57,24.2,57,54.2c0,19.5-10.8,36.7-27.2,46.2
					c-15.6-10.3-33.6-17.4-53-20.3V973.1z"/>
				<g>
					<path class="st16" d="M5317.6,962.4c-0.2,0-0.5,0-0.6-0.1c-0.9-0.4-1.4-1.4-1.1-2.2c0-0.1,3.5-9.6-2.4-19.9
						c-5.1-8.8-16.2-7.3-16.7-7.2c-0.9,0.1-1.9-0.5-2-1.5c-0.1-0.9,0.5-1.9,1.5-2c0.6-0.1,14-2,20.3,8.9c6.7,11.6,2.7,22.4,2.6,22.8
						C5318.9,961.9,5318.3,962.4,5317.6,962.4z"/>
				</g>
				<g>
					<path class="st16" d="M5357.7,940.1c-0.4,0-0.7-0.1-1.1-0.4c-10.2-7.9-23.9-6.9-24-6.9c-0.9,0.1-1.8-0.7-1.9-1.6
						s0.7-1.8,1.6-1.9c0.6,0,15-1.1,26.3,7.6c0.8,0.6,0.9,1.6,0.4,2.5C5358.6,939.8,5358.2,940.1,5357.7,940.1z"/>
				</g>
				<path class="st5" d="M5311.5,966.4c0,0,2.8,18.6,22,0.5C5333.5,966.9,5320.1,968.6,5311.5,966.4z"/>
				<ellipse class="st16" cx="5341" cy="945.2" rx="2.5" ry="5.5"/>
				<ellipse class="st16" cx="5304.3" cy="945.2" rx="2.1" ry="4.6"/>
			</g>
		</g>
		<g>
			<path class="st6" d="M5535.8,794.8h-368.4c-11.3,0-20.3-9.2-20.3-20.3V577.2c0-11.3,9.2-20.3,20.3-20.3h368.4
				c11.3,0,20.3,9.2,20.3,20.3v197.2C5556.1,785.6,5546.9,794.8,5535.8,794.8z"/>
			<g>
				<path class="st8" d="M5460.8,794.8h-224.8c22.7-30.2,57.4-49.5,96.3-49.5h32.3C5403.4,745.3,5438.1,764.6,5460.8,794.8z"/>
				<path class="st5" d="M5336.4,784.7h5.1c22,0,39.8-17.9,39.8-39.8v-28.3c0-0.1-0.1-0.2-0.2-0.2h-73.9c-0.1,0-0.2,0.1-0.2,0.2
					v38.9C5307,771.6,5320.2,784.7,5336.4,784.7z"/>
				<path class="st8" d="M5307,716.3v38.2c0,0.5,0,1.1,0,1.5c1.1,21.9,55.5,13.3,71.8-39.7H5307z"/>
				<path class="st5" d="M5402.8,699.2c0,4.7-1.9,8.9-5.1,12.1c-3.1,3.1-7.3,4.9-12.1,4.9h-16.1c-5.8,15.3-20.6,26.1-37.8,26.1
					h-12.6c-17.5,0-31.6-14.2-31.6-31.6v-49.4c18.1,1.5,33.4-13,34-13.6c-0.2,0.8-9.4,26.7,11.4,28.1c20.7,1.4,27.5-13.5,27.7-14.1
					c0,0.6,0.1,20.6,16.5,21.6l0,0h8.6C5395.2,683.4,5402.8,689.8,5402.8,699.2z"/>
				<path class="st10" d="M5378.6,683.4h-0.4c-0.4,0-0.7,0-1.1,0c-16.3-1.1-16.5-20.9-16.5-21.6c-0.2,0.6-7.2,15.5-27.7,14.1
					c-20.7-1.4-11.6-27.3-11.4-28.1c-0.6,0.5-15.9,15.2-34,13.6c-4-0.4-8-1.4-12.1-3.6c-26.4-14.3-9.4-43.8,16.6-44.2
					c20.7-0.2,29.5,11,29.5,11s4.5-23.2,29.9-19.2c25.4,4,20.8,26.4,20.8,26.4s21.3-9.9,33,8.3
					C5419.2,661.6,5398.4,683.4,5378.6,683.4z"/>
				<g>
					<path class="st8" d="M5309.1,704.9c-0.1,0-0.2,0-0.5,0c-0.9-0.2-1.5-1.2-1.3-2.1c0-0.1,2.8-11.8-2.2-21.3
						c-5.5-10.1-15-8.5-15.4-8.5c-0.9,0.1-1.9-0.5-2-1.4c-0.2-0.9,0.5-1.9,1.4-2c0.1,0,12.5-2.2,19.2,10.2
						c5.8,10.7,2.7,23.3,2.6,23.7C5310.6,704.3,5309.9,704.9,5309.1,704.9z"/>
				</g>
				<g>
					<path class="st8" d="M5315.4,718.5c-2.5,0-4.7-0.4-6.3-0.8c-0.9-0.2-1.5-1.2-1.3-2.1s1.2-1.5,2.1-1.3l0,0
						c0.6,0.1,14,3.6,18.9-6.7c0.5-0.8,1.4-1.3,2.4-0.8c0.9,0.5,1.3,1.4,0.8,2.4C5328.5,716.5,5321.4,718.5,5315.4,718.5z"/>
				</g>
				<ellipse class="st8" cx="5332.4" cy="685.3" rx="2.5" ry="5.5"/>
				<ellipse class="st8" cx="5295.9" cy="685.3" rx="2.1" ry="4.6"/>
				<g>
					<path class="st8" d="M5376.8,705.7c-0.9,0-1.8-0.8-1.8-1.8c0-7.5,6.1-13.6,13.6-13.6c0.9,0,1.8,0.8,1.8,1.8
						c0,0.9-0.8,1.8-1.8,1.8c-5.5,0-10.1,4.5-10.1,10.1C5378.6,704.9,5377.8,705.7,5376.8,705.7z"/>
				</g>
			</g>
		</g>
		<g>
			<path class="st8" d="M5071,794.8h-368.4c-11.3,0-20.3-9.2-20.3-20.3V577.2c0-11.3,9.2-20.3,20.3-20.3H5071
				c11.3,0,20.3,9.2,20.3,20.3v197.2C5091.5,785.6,5082.3,794.8,5071,794.8z"/>
			<g>
				<g>
					<path class="st5" d="M4982.1,794.8h-228.5c23-34.4,58.3-56.4,97.8-56.4h32.9C4923.8,738.4,4958.9,760.4,4982.1,794.8z"/>
					<g>
						<g>
							<path class="st17" d="M4982.1,794.8h-228.5c0.7-1.1,1.4-2,2.1-3.1c0.1-0.2,0.2-0.5,0.5-0.6h223.4c0.1,0.2,0.2,0.4,0.5,0.6
								C4980.6,792.7,4981.3,793.7,4982.1,794.8z"/>
						</g>
						<g>
							<path class="st17" d="M4972.4,782h-209.2c1.1-1.3,2.1-2.5,3.2-3.6h202.9C4970.3,779.5,4971.4,780.7,4972.4,782z"/>
						</g>
						<g>
							<path class="st17" d="M4959.5,768.6h-183.4c1.4-1.3,2.8-2.5,4.2-3.6h174.9C4956.7,766.1,4958.1,767.3,4959.5,768.6z"/>
						</g>
						<g>
							<path class="st17" d="M4939.7,753.9h-144c2.1-1.3,4.3-2.5,6.6-3.6H4933C4935.4,751.4,4937.5,752.6,4939.7,753.9z"/>
						</g>
					</g>
				</g>
				<g>
					<path class="st18" d="M4904.2,694.4V747c0,5.4-16.7,9.8-37.1,9.8c-20,0-36.3-4.1-37.1-9.4c0-0.1,0-0.2,0-0.4v-52.5H4904.2z"/>
					<path class="st19" d="M4903.8,694.4v1.2c0,25.9-32.1,55.5-55.2,58.9c-3.6,0.6-14.9-1.6-18.5-7.3c0-0.1,0-0.2,0-0.4v-52.5h73.7
						V694.4z"/>
				</g>
				<path class="st18" d="M4924.5,677.8v1.2c0,9.1-7.4,16.5-16.5,16.5h-14.2c-4.6,16.5-19.6,28.4-37.5,28.4h-15.2
					c-16.8,0-30.6-13.6-30.6-30.6v-66.9c28.2,7.9,78.6,0.5,78.6,0.5s-4.6,16.5,4.1,34.3h14.8
					C4917.1,661.4,4924.5,668.8,4924.5,677.8z"/>
				<path class="st20" d="M4907.4,659.3H4894c-11.4-19.3-4.9-32.1-4.9-32.1s-50.4,7.3-78.6-0.5c-12.8-3.5-21-10.2-18-22.1
					c9.8-38.1,114.8,2.5,122.1,16.2C4922,634.6,4907.4,659.3,4907.4,659.3z"/>
				<g>
					<path class="st19" d="M4855.2,695.4c-0.4,0.4-0.7,0.5-1.2,0.5c-0.5,0-0.9-0.2-1.3-0.6l-1.6-1.8c-5.1,4.5-9.9,6.7-14.3,6.7
						c-0.5,0-0.9,0-1.3-0.1c-4.9-0.5-7.4-3.8-7.5-3.9c-0.6-0.8-0.5-1.9,0.4-2.5c0.8-0.6,1.9-0.5,2.5,0.4c0.1,0.1,1.8,2.2,5.2,2.6
						c3.8,0.4,8.1-1.6,12.8-5.8l-0.9-1.1c-0.7-0.7-0.6-1.9,0.1-2.5c0.7-0.7,1.9-0.6,2.5,0.1l4.9,5.4
						C4856.1,693.6,4855.9,694.7,4855.2,695.4z"/>
					<path class="st19" d="M4873.1,660.3c-0.5,0-0.9-0.1-1.3-0.5c-10.3-10.1-23.5-8.1-23.6-8.1c-0.9,0.1-1.9-0.5-2-1.4
						c-0.1-0.9,0.5-1.9,1.4-2c0.6-0.1,15-2.5,26.7,9.1c0.7,0.7,0.7,1.8,0,2.5C4874,660.2,4873.6,660.3,4873.1,660.3z"/>
					<path class="st19" d="M4833,685c-0.1,0-0.4,0-0.5-0.1c-0.9-0.2-1.4-1.3-1.2-2.2c0-0.1,3.6-12.1-2.2-22.3
						c-5.1-8.8-16.5-6.1-16.6-6c-0.9,0.2-1.9-0.4-2.1-1.3c-0.2-0.9,0.4-1.9,1.3-2.1c4.8-1.2,15.4-1.2,20.5,7.8
						c6.7,11.6,2.8,24.6,2.6,25.2C4834.4,684.5,4833.8,685,4833,685z"/>
					<ellipse class="st19" cx="4819.9" cy="666.7" rx="2.1" ry="4.6"/>
					<ellipse class="st19" cx="4856.4" cy="666.7" rx="2.5" ry="5.5"/>
					<path class="st19" d="M4898.8,683.8c-0.9,0-1.8-0.8-1.8-1.8c0-7.6,6.2-13.9,13.9-13.9c0.9,0,1.8,0.8,1.8,1.8
						c0,0.9-0.8,1.8-1.8,1.8c-5.8,0-10.3,4.6-10.3,10.3C4900.6,683,4899.9,683.8,4898.8,683.8z"/>
				</g>
			</g>
		</g>
	</g>
	<g id="WOMAN">
		<g id="LEGS">
			<g id="RIGHT_LEG">
				<g>
					<path class="st15" d="M5503.9,2901.1c-3.2-0.9-4.9-1.4-4.9-1.4l-38.4,125.9l-144.7-38c-1.2-1.1-1.8-1.6-1.8-1.6
						s-585.9-459.2-616.7-679.6c-30.7-220.4,214.7-429.5,214.7-429.5s523.4,989.3,588.1,1021.6
						C5501.6,2899.2,5502.8,2900.1,5503.9,2901.1z"/>
					<path class="st16" d="M5036,2108.3c-18.3,98.1-82.7,296.9-149.4,489.2c-98.7-106.4-178.4-213.7-189.2-291.2
						c-19.5-139.6,72-274.9,141.6-355.1c25.5-20.5,53-39.3,82.7-56.1C4940,1929.3,4982.2,2008.6,5036,2108.3z"/>
				</g>
				<g>
					<path class="st9" d="M5832.8,2985.9L5617.6,3124l-62.4-9.4l-57.5,36.4l18.6,38.1l-94.6,60.8
						c-125.4-114.1-107.7-262.6-107.7-262.6l146.4,38.4l38.4-125.9c0,0,131.5,38.4,228.6,35.1
						C5824.8,2931.7,5832.8,2985.9,5832.8,2985.9z"/>
					<path class="st21" d="M5588.2,2916.6c0,0-9-95.7-31.7-89.7c-22.7,6.1,5.8,101.5,31.3,91.1c25.5-10.5,51-78.3,51-78.3"/>
					<polyline class="st21" points="5336.4,3123.8 5480.6,3126.1 5552.2,3083.3 5620.1,3094.2 5823.8,2967 					"/>
					<g>
						<line class="st21" x1="5558.3" y1="2911.2" x2="5544.9" y2="2973.6"/>
						<line class="st21" x1="5587.5" y1="2918.3" x2="5574.1" y2="2980.7"/>
						<line class="st21" x1="5617.9" y1="2923.3" x2="5604.5" y2="2985.7"/>
					</g>
				</g>
			</g>
			<g id="LEFT_LEG">
				<path class="st15" d="M4862.4,1828.9c0,0,86.2,40.2,86.2,187.6c0,142.5-328.9,1014.8-328.9,1014.8l-101.2,85.8l-102.7-112.5
					C4466,2956.8,4321.9,2094.1,4862.4,1828.9z"/>
				<g>
					<path class="st9" d="M4853.2,3284.2l-255.8,0.2l-47.5-41.6l-68.1-0.4l-4.9,42.1l-100.3,0.1c-54.5-169.7,39.5-280.2,39.5-280.2
						l102,112.4l101.9-85.7c0,0,88.4,103.7,171.8,153.3C4875.7,3234.1,4853.2,3284.2,4853.2,3284.2z"/>
					<path class="st21" d="M4678.5,3091.5c0,0,100.4-64.8,71.8-89.6c-28.6-24.8-86,82.9-70.4,91.4c15.6,8.6,123.9-24,123.9-24"/>
					<polyline class="st21" points="4363.2,3134.5 4483.2,3210.2 4566.6,3210.2 4619.3,3254.5 4855.2,3254.5 					"/>
					<g>
						<line class="st21" x1="4656.1" y1="3067.1" x2="4611" y2="3112.2"/>
						<line class="st21" x1="4676.8" y1="3088.8" x2="4631.7" y2="3133.9"/>
						<line class="st21" x1="4699.6" y1="3109.5" x2="4654.5" y2="3154.6"/>
					</g>
				</g>
			</g>
		</g>
		<g id="SKIRT">
			<path class="st10" d="M4862.4,1828.9c-203.2,99.7-309.7,284-366,477.5h-616.7c-157.8,0-275.5-145.6-242.2-299.9l45.3-210.2H4755
				C4794.7,1796.3,4831.6,1808.3,4862.4,1828.9z"/>
			<polygon class="st15" points="4404.5,2030.3 4626.5,2029.8 4593.6,2083.8 			"/>
			<path class="st22" d="M4863.6,1827.7c-101.1,49.6-178.2,120.1-237.2,202.3h-562.6c-101.4,0-177.1-93.2-156.4-192.5l8.6-41.1"/>
			<path class="st22" d="M4497.2,2306.3c22.4-77.2,52.8-153,94-222.5l-186.8-53.6"/>
		</g>
		<g id="BLOUSE">
			<path class="st12" d="M3538.6,1231.8l112.9,443.1h-210.7c-122.7,0-201.7-130.3-144.8-239.1l161.8-309.5
				c45.8-87.6,136.5-142.5,235.3-142.5h38.2C3601.6,983.8,3506.5,1106,3538.6,1231.8z"/>
			<path class="st12" d="M4839.2,1116.8c66.4,0,121.6-8.8,135-21.2l-206,446.6c-37.3,80.9-118.2,132.6-207.2,132.6
				c-26.1,0-51.7-4.5-75.9-13c-24.2-8.6-47-21.2-67.3-37.6l-129.9-104.8c0,0-12.9,76-105.2,95.4v181.2h-500.1l-144-564.4
				c-32.1-125.8,63-248.1,192.8-248.1h350.1c30.9,0,61.4,3.9,90.7,11.4c80.4,20.5,152.6,67.7,203.6,135.4l171.1,227.1l153.7-268.7
				l0,0c0,0.2-0.1,0.6-0.1,0.8C4700.7,1105.2,4762.9,1116.8,4839.2,1116.8z"/>
			<line class="st22" x1="3537.4" y1="1231.8" x2="3648" y2="1678.4"/>
			<line class="st22" x1="4289.1" y1="1525.4" x2="4190.8" y2="1420.8"/>
			<path class="st10" d="M4977.4,1089.1l-3.1,6.6c-13.4,12.5-68.6,21.2-135,21.2c-76.4,0-138.6-11.6-138.6-27c0-0.2,0-0.6,0.1-0.8
				c2.1-15,63.5-28,138.6-28C4914.4,1061,4975.2,1073.9,4977.4,1089.1C4977.4,1089,4977.4,1089,4977.4,1089.1z"/>
		</g>
		<g id="ARM">
			<path class="st15" d="M5038.9,863.4c0,6.7-1.6,13.3-4.7,19s-7.5,10.8-13,14.7l-2.7,1.9l-21,112.2c-3.4,18.2-14.2,34.3-29.9,44.3
				l-28.8,18.3l-22.8,14.6l-10.6,25.3c-19.6,2-42.1,3.2-66.1,3.2c-24.2,0-47-1.2-66.9-3.3V939.6c0-7.5,1.6-14.9,4.8-21.7l38.3-82.5
				c0,0,41.8,10.3,22.6,61.7c-17.5,46.7,22.4,34.7,44.9,26.3c20.1-7.5,107.9-52.2,142.2-68.5
				C5031.7,851.8,5038.9,856.5,5038.9,863.4z"/>
			<g>
				<path class="st23" d="M5002.3,968.6c-3.4,18.2-14.2,34.2-29.9,44.2l-51.6,32.9"/>
				<path class="st23" d="M5010.7,921c-3.4,18.2-14.2,34.2-29.9,44.2l-51.6,32.9"/>
				<line class="st23" x1="5014.7" y1="900.3" x2="4931.7" y2="953"/>
			</g>
			<path class="st16" d="M4943.3,1071l-4.6,2.9l-22.8,14.6l-10.6,25.3c-19.6,2-42.1,3.2-66.1,3.2c-24.2,0-47-1.2-66.9-3.3v-48.9
				c19.9-2.4,42.7-3.6,66.9-3.6C4880.7,1061,4917.9,1064.9,4943.3,1071z"/>
		</g>
		<g id="HEAD">
			<g id="NECK">
				<path class="st15" d="M4161.3,992.2c-17,22.9-80.5,76.9-294.2,76.9c-274.9,0-99-85.1-99-85.1l116.6-194.8l125.1,76.7v61.7
					c0,31.1,25.3,56.3,56.3,56.3h8.1C4103.4,983.9,4133.5,985.2,4161.3,992.2z"/>
				<polygon class="st16" points="4009.7,865.9 4009.7,881.6 3768,983.9 3884.6,789.2 				"/>
			</g>
			<g id="HEAD_1_">
				<path class="st15" d="M4016.3,873.5h26.6c24.4,0,44.3-19.9,44.3-44.3v-148h-158.6v104.6C3928.6,834.3,3967.9,873.5,4016.3,873.5
					z"/>
				<path class="st23" d="M4083.7,820.6c-17,0-23.9-11.8-23.9-11.8"/>
				<ellipse class="st16" cx="4068.3" cy="762.4" rx="5.6" ry="10.9"/>
			</g>
			<path id="HAIR" class="st24" d="M3958.8,696.7c0,0,130.8,79,173.4,10.2c37.4-60.3-128.2-91.3-186.1-91.6
				c-62.9-0.2-146.2,27.6-144.8,120.1c1.2,76.2,4.3,187.6-40.8,168.2c-160.6-68.9-303.2,3.1-303.7,140.1
				c-0.5,137,158.6,149.9,162.5,114.5c4.1-35.3-98.7-27.2-84.9,64.4c13.8,91.6,75.1,206,215.2,206c169.2,0.1,277-222.7,172.3-245.4
				c-80.3-17.4,81.8,137.5,129.9-23.5c51.7-173.4-135.2-230.1-139.7-334.9C3907.6,720.2,3958.8,696.7,3958.8,696.7z"/>
			<g id="GLASSES">
				<line class="st21" x1="3949.6" y1="759.5" x2="4043.2" y2="759.5"/>
				<ellipse class="st21" cx="4072" cy="763.1" rx="26.6" ry="34.1"/>
			</g>
			<g id="HEADPHONES">
				<path class="st2" d="M3900,717.6v-99c0-14.8,12-26.9,26.9-26.9h29.4c14.8,0,26.9,12,26.9,26.9"/>
				<path class="st13" d="M3928.4,826.5h-56.5c-14.5,0-26.2-11.8-26.2-26.2v-56.5c0-14.5,11.8-26.2,26.2-26.2h56.5
					c14.5,0,26.2,11.8,26.2,26.2v56.5C3954.5,814.8,3942.8,826.5,3928.4,826.5z"/>
				<path class="st13" d="M3913.7,807.8h-27.6c-11.9,0-21.6-9.6-21.6-21.6v-27.6c0-11.9,9.6-21.6,21.6-21.6h27.6
					c11.9,0,21.6,9.6,21.6,21.6v27.6C3935.3,798.2,3925.7,807.8,3913.7,807.8z"/>
				<g>
					<line class="st2" x1="3924.6" y1="739.8" x2="3875.5" y2="805.1"/>
					<line class="st2" x1="3908.4" y1="737.6" x2="3865.8" y2="794"/>
					<line class="st2" x1="3934.1" y1="751.4" x2="3891.6" y2="807.8"/>
					<line class="st2" x1="3935.3" y1="772.5" x2="3908.6" y2="807.8"/>
					<line class="st2" x1="3891.1" y1="737.6" x2="3864.5" y2="772.7"/>
				</g>
			</g>
		</g>
	</g>
	<g id="CHAIR">
		<path class="st2" d="M3858.2,2373.3v64.8c0,31.3-25.4,56.7-56.7,56.7h-145.3"/>
		<line class="st2" x1="3912.4" y1="2374" x2="3912.4" y2="2968.1"/>
		<path class="st2" d="M3649.3,3158.6c0-105.2,104.5-190.5,233.3-190.5h58.5c128.8,0,233.3,85.3,233.3,190.5"/>
		<path class="st8" d="M4477.6,2383h-853.3c-42.8,0-77.3-34.7-77.3-77.3l0,0h950.8L4477.6,2383z"/>
		<circle class="st8" cx="3644.2" cy="3221.6" r="63"/>
		<path class="st8" d="M3612.1,2510.8h126.5c10.3,0,18.7-8.3,18.7-18.7v-1.4c0-10.3-8.3-18.7-18.7-18.7h-126.5
			c-10.3,0-18.7,8.3-18.7,18.7v1.4C3593.4,2502.4,3601.7,2510.8,3612.1,2510.8z"/>
		<path class="st4" d="M3547,2308h605.4l-202.5-567.5c-14.1-39.4-51.4-65.7-93.2-65.7h-445.1c-44.2,0-75,43.7-60.2,85.3L3547,2308z"
			/>
		<path class="st4" d="M3576.9,2308h526.3l-195.7-548.6c-13.6-38.1-49.6-63.5-90-63.5h-450.6"/>
		<circle class="st8" cx="4173.4" cy="3221.6" r="63"/>
	</g>
</g>
</svg>
