<?xml version="1.0" encoding="utf-8"?>
<!-- Generator: Adobe Illustrator 25.0.0, SVG Export Plug-In . SVG Version: 6.00 Build 0)  -->
<svg version="1.1" id="Layer_1" xmlns="http://www.w3.org/2000/svg" xmlns:xlink="http://www.w3.org/1999/xlink" x="0px" y="0px"
	 viewBox="0 0 250 440" style="enable-background:new 0 0 250 440;" xml:space="preserve">
<style type="text/css">
	.st0{fill:#E7E3D8;}
	.st1{fill:none;stroke:#F6CF4B;stroke-width:15;stroke-linecap:round;stroke-miterlimit:10;}
</style>
<g>
	<path class="st0" d="M126,138c45.2,0,82,36.8,82,82s-36.8,82-82,82s-82-36.8-82-82S80.8,138,126,138 M126,135
		c-46.9,0-85,38.1-85,85s38.1,85,85,85s85-38.1,85-85S172.9,135,126,135L126,135z"/>
</g>
<g>
	<path class="st1" d="M41,220c0,46.9,38.1,85,85,85s85-38.1,85-85s-38.1-85-85-85"/>
</g>
</svg>
