<?xml version="1.0" encoding="utf-8"?>
<!-- Generator: Adobe Illustrator 25.0.0, SVG Export Plug-In . SVG Version: 6.00 Build 0)  -->
<svg version="1.1" id="Layer_1" xmlns="http://www.w3.org/2000/svg" xmlns:xlink="http://www.w3.org/1999/xlink" x="0px" y="0px"
	 viewBox="0 0 2072 778" style="enable-background:new 0 0 2072 778;" xml:space="preserve">
<style type="text/css">
	.st0{display:none;}
	.st1{display:inline;fill:#FFCC33;stroke:#000000;stroke-miterlimit:10;}
	.st2{fill-rule:evenodd;clip-rule:evenodd;fill:#8DC5E0;}
	.st3{fill-rule:evenodd;clip-rule:evenodd;fill:#FF3274;}
	.st4{fill-rule:evenodd;clip-rule:evenodd;fill:#AADAF1;}
	.st5{fill:none;stroke:#AADAF1;stroke-width:2;stroke-linecap:round;stroke-linejoin:round;}
	.st6{fill-rule:evenodd;clip-rule:evenodd;fill:#6A3416;}
	.st7{fill:none;stroke:#FFFFFF;stroke-width:2;stroke-linecap:round;stroke-linejoin:round;}
	.st8{fill-rule:evenodd;clip-rule:evenodd;fill:#3C1B09;}
	.st9{fill-rule:evenodd;clip-rule:evenodd;fill:#C4C4C4;}
	.st10{fill:none;stroke:#8D8D8D;stroke-width:2;stroke-linecap:round;stroke-linejoin:round;}
	.st11{fill-rule:evenodd;clip-rule:evenodd;fill:#F77F89;}
	.st12{fill-rule:evenodd;clip-rule:evenodd;fill:#3B4161;}
	.st13{fill:none;stroke:#737999;stroke-width:2;stroke-linecap:round;stroke-linejoin:round;}
	.st14{fill:none;stroke:#B5545C;stroke-width:2;stroke-linecap:round;stroke-linejoin:round;}
	.st15{fill-rule:evenodd;clip-rule:evenodd;fill:#B5545C;}
	.st16{fill:none;stroke:#FF3274;stroke-width:2;stroke-linecap:round;stroke-linejoin:round;}
	.st17{fill:none;stroke:#9B9B9B;stroke-width:2;stroke-linecap:round;stroke-linejoin:round;}
	.st18{fill:none;stroke:#8DC5E0;stroke-width:2;stroke-linecap:round;stroke-linejoin:round;}
	.st19{opacity:0.2496;fill-rule:evenodd;clip-rule:evenodd;fill:#FFFFFF;enable-background:new    ;}
</style>
<g id="Layer_2_1_" class="st0">
	<rect x="-460.5" y="-209.5" class="st1" width="2610" height="1005"/>
</g>
<g id="Layer_1_1_">
	<path class="st2" d="M696.11,403.06c0-6.79,10.69-12.3,23.89-12.3c13.19,0,23.89,5.51,23.89,12.3s-10.7,12.3-23.89,12.3
		S696.11,409.85,696.11,403.06z"/>
	<path class="st3" d="M658.79,688.89l7.24,23.34l30.08-6.87l-2.95-29.68L658.79,688.89z"/>
	<path class="st4" d="M578.94,405.81h457.48c2.44,0,4.42,1.98,4.42,4.42v8.03c0,2.44-1.98,4.42-4.42,4.42H578.94
		c-2.44,0-4.42-1.98-4.42-4.42v-8.03C574.52,407.79,576.5,405.81,578.94,405.81z"/>
	<g>
		<path class="st5" d="M641.22,423.06l-92.51,283.82"/>
		<path class="st5" d="M716.33,423.06l-92.5,283.82"/>
		<path class="st5" d="M716.33,423.06l92.51,283.82"/>
		<path class="st5" d="M641.22,423.06l92.51,283.82"/>
	</g>
	<path class="st3" d="M558.46,660.41l-9.74,21.97l26.93,11.58l11.99-22.24L558.46,660.41z"/>
	<path class="st6" d="M548.1,680.38l28.49,12.34c0,0,35.52,33.29,51.91,41.4c-0.05,7.39-0.96,10.82-6.68,12.93
		c-2.54,0.94-48.45-17.44-48.45-17.44l-7.7-8.26l-29.7-13.66L548.1,680.38z"/>
	<path class="st7" d="M565.3,674.59c0-2.01,1.63-3.63,3.63-3.63c2.01,0,3.63,1.63,3.63,3.63c0,2.01-1.63,3.63-3.63,3.63
		C566.93,678.22,565.3,676.59,565.3,674.59z"/>
	<path class="st7" d="M551.57,679.32c0-2.01,1.63-3.63,3.63-3.63c2.01,0,3.63,1.63,3.63,3.63c0,2.01-1.63,3.63-3.63,3.63
		S551.57,681.33,551.57,679.32z"/>
	<path class="st7" d="M570.39,685.71c0-2.01,1.63-3.63,3.63-3.63c2.01,0,3.63,1.63,3.63,3.63s-1.63,3.63-3.63,3.63
		S570.39,687.71,570.39,685.71z"/>
	<path class="st8" d="M533.73,702.44l29.07,12.93c1.59,0.71,2.32,2.54,1.63,4.09l-2.54,5.71c-0.69,1.54-2.53,2.23-4.12,1.52
		l-29.07-12.93c-1.59-0.7-2.32-2.53-1.63-4.08l2.54-5.71C530.3,702.42,532.14,701.74,533.73,702.44z"/>
	<path class="st9" d="M484.56,449.85c66.21-18.65,161.2-8.32,181.68,20.13c7.32,10.16,4.84,26.06,2.97,32.05
		c-1.87,5.99-79.32,172.22-79.32,172.22l-34.74-13.22l34.14-134.97C589.29,526.07,476.34,452.17,484.56,449.85z"/>
	<path class="st10" d="M567.49,665.73l39.98-128.91"/>
	<path class="st10" d="M558.65,647.21l37.28,14.05"/>
	<path class="st6" d="M665.43,710.07l29.86-8.52c0,0,48.58,3.23,66.39-0.89c4.65,5.75,6.12,8.98,3.03,14.24
		c-1.37,2.33-48.53,17.22-48.53,17.22L705,730.61l-31.63,8.26L665.43,710.07z"/>
	<path class="st8" d="M668.3,736.24l30.68-8.43c1.67-0.46,3.4,0.49,3.85,2.12l1.66,6.03c0.45,1.64-0.55,3.33-2.22,3.79l-30.68,8.43
		c-1.67,0.46-3.4-0.49-3.84-2.12l-1.66-6.03C665.63,738.4,666.63,736.7,668.3,736.24z"/>
	<path class="st7" d="M678.77,699.61c0-2.01,1.63-3.63,3.63-3.63s3.63,1.63,3.63,3.63c0,2.01-1.63,3.63-3.63,3.63
		S678.77,701.62,678.77,699.61z"/>
	<path class="st7" d="M685.28,687.87c0-2.01,1.63-3.63,3.63-3.63c2.01,0,3.63,1.63,3.63,3.63c0,2.01-1.63,3.63-3.63,3.63
		C686.91,691.5,685.28,689.87,685.28,687.87z"/>
	<path class="st7" d="M665.43,697.02c0-2.01,1.63-3.63,3.63-3.63c2.01,0,3.63,1.63,3.63,3.63c0,2.01-1.63,3.63-3.63,3.63
		S665.43,699.03,665.43,697.02z"/>
	<path class="st4" d="M430.3,531.5h151.8c10.84,0,19.63,8.79,19.63,19.63l0,0c0,10.84-8.79,19.63-19.63,19.63H430.3
		c-10.84,0-19.63-8.79-19.63-19.63l0,0C410.67,540.29,419.46,531.5,430.3,531.5z"/>
	<path class="st4" d="M499.84,557.36h12.72c2.1,0,3.8,1.7,3.8,3.8v140.6c0,2.1-1.7,3.8-3.8,3.8h-12.72c-2.1,0-3.8-1.7-3.8-3.8
		v-140.6C496.04,559.06,497.74,557.36,499.84,557.36z"/>
	<path class="st4" d="M494.73,660.41h22.96c3.46,0,6.26,2.8,6.26,6.26v33.95c0,3.46-2.8,6.26-6.26,6.26h-22.96
		c-3.46,0-6.26-2.8-6.26-6.26v-33.95C488.47,663.21,491.27,660.41,494.73,660.41z"/>
	<path class="st5" d="M429.99,731.05v-6.63c0-9.68,7.85-17.54,17.54-17.54h58.67"/>
	<path class="st5" d="M582.24,731.05v-6.63c0-9.68-7.85-17.54-17.54-17.54h-58.67"/>
	<path class="st5" d="M477.45,731.05v-8c0-8.93,4.65-16.17,10.39-16.17h36.73c5.74,0,10.39,7.24,10.39,16.17v8"/>
	<path class="st5" d="M420.38,740.67c0-5.31,4.3-9.62,9.61-9.62s9.61,4.31,9.61,9.62c0,5.3-4.3,9.61-9.61,9.61
		C424.68,750.28,420.38,745.97,420.38,740.67z"/>
	<path class="st5" d="M467.84,740.67c0-5.31,4.3-9.62,9.61-9.62s9.61,4.31,9.61,9.62c0,5.3-4.3,9.61-9.61,9.61
		C472.14,750.28,467.84,745.97,467.84,740.67z"/>
	<path class="st5" d="M534.96,731.05c5.31,0,9.61,4.31,9.61,9.62c0,5.3-4.3,9.61-9.61,9.61s-9.61-4.31-9.61-9.61
		C525.34,735.36,529.65,731.05,534.96,731.05"/>
	<path class="st5" d="M572.63,740.67c0-5.31,4.3-9.62,9.61-9.62s9.61,4.31,9.61,9.62c0,5.3-4.3,9.61-9.61,9.61
		S572.63,745.97,572.63,740.67z"/>
	<path class="st9" d="M436,410.75c-60.57,126.52,61.69,129.93,104.58,129.3s54.19-3.86,65.8-6.66
		c3.71,11.23,48.18,156.79,48.18,156.79l39.05-11.8c0,0-29.86-184.91-36.59-197.41c-18.51-34.34-128.05-36.2-141.85-35.37
		C501.36,446.43,443.68,394.71,436,410.75z"/>
	<path class="st10" d="M439.78,428.03c-41.49,103.55,136.45,97.31,175.36,85.45c5.83,16.65,54.04,171.41,54.04,171.41"/>
	<path class="st10" d="M664.78,513.68c-25.33-5.18-44.51-27.26-45.25-53.95"/>
	<path class="st10" d="M587.74,537.18c8.14-1.17,13.36-2.53,18.63-3.8c1.54,4.66,10.09,32.42,19.57,63.32"/>
	<path class="st10" d="M664.5,511.66c-3.27-16.27-5.96-27.87-7.48-30.69c-17.4-32.26-115.16-35.86-138.35-35.48"/>
	<path class="st10" d="M691.73,666.93l-40.54,12.26"/>
	<path class="st6" d="M509.34,214.56c0-11.44,9.27-20.71,20.71-20.71s20.71,9.27,20.71,20.71c0,11.44-9.27,20.71-20.71,20.71
		C518.62,235.27,509.34,226,509.34,214.56z"/>
	<path class="st11" d="M705.16,385.12c3.4-2.79,12.65-9.63,15.61-9.59c2.96,0.04,11.92,8.47,12.12,10.68s-2.65,5.7-4.35,5.94
		c-1.7,0.25-7.17-5.03-8.37-4.52s-3.84,3.27-4.61,4.51C714.78,393.38,701.75,387.91,705.16,385.12z"/>
	<path class="st11" d="M582.95,330.23l20.47,20.88c0,0,15.47-33.27,26.21-50.81c-2.18-3.14-5.97-15.65-5.51-18.01
		c0.46-2.36,11.75-24.53,14.47-23.24s5.26,5.62,3.87,9.99c1.61-5.77,4.33-13.75,6.73-14.54c2.4-0.79,7.45,0.25,7.23,4.3
		c1.15-2.65,3.17-4.51,5.5-4.61c2-0.09,6.08,1.63,6.35,4.15c0.34,3.14-4.15,10.67-4.7,11.73c2.1-2.86,2.08-3.03,3.34-2.98
		c2.53,0.08,6.81,3.85,4.72,9.28s-12.42,30.77-20.42,31.85c0.37,4.91-23.47,73.57-23.47,73.57l-36.12-1.44l-26.32-34.8
		L582.95,330.23z"/>
	<path class="st12" d="M511.8,254.79c-66.43,0.09-88.64,155.96-81.69,166.69c5.08,7.84,65.34,30.9,86.03,23.81
		c7.3-2.5,26.26-41.45,37-80.75c11.46-9.4,33.12-27.19,36.66-30.62c-0.97-7.54-18.41-37.87-36.44-51.31
		C547.09,268.38,535.52,254.79,511.8,254.79z"/>
	<path class="st11" d="M528.98,360.73c0,0,31.7,40.01,40.04,43.25c8.34,3.23,98.42,2.22,104.96,1.44c6.54-0.77,5.38,4.25,11.33,4.57
		c6.16,0.34,9.72-5.11,10.55-7.86c3.76,4.18,10.39,10.61,14.74,8.36c3.08-1.59,3.12-3.03,1.02-5.21c2.99,1.73,8.42,4.27,10.61,2.57
		c3.52-2.74,3.85-5.3,2.66-7.43c-3.67-6.59-15.49-15.92-18.3-17.02c-3.24-1.27-13.11,2.24-17.85,2.53
		c-21.53,1.33-75.82-12.06-93.64-12.87c-2.62-5.03-29.76-37.83-31.86-41.11C555.8,338.34,528.98,360.73,528.98,360.73z"/>
	<path class="st11" d="M520.12,222.72c0-17.37,14.08-31.45,31.45-31.45s31.45,14.08,31.45,31.45s-14.08,31.45-31.45,31.45
		C534.2,254.18,520.12,240.09,520.12,222.72z"/>
	<path class="st11" d="M524.35,215.83c0.13,4.89-10.11,35.81-14.15,41.73c2.04,4.73,21.57,16.59,30.56,14.06
		c1.02-5.99,4.35-18.06,6.42-20.74C549.24,248.21,524.21,210.94,524.35,215.83z"/>
	<path class="st6" d="M560.3,156.42c-6.3,0-11.89,2.88-15.69,7.31c-2.54-0.92-5.24-1.5-8.09-1.5c-13.14,0-23.78,10.65-23.78,23.78
		c0,2.33,0.44,4.53,1.06,6.66c-2.73,2.54-4.44,6.11-4.44,10.09c0,6.79,4.94,12.47,11.5,13.72c0.16-0.77,0.15-1.31,0.41-2.19
		c0.68-2.34,10.86-6.61,11.97-5.84c1.09,0.75,2.35,1.24,3,1.31c0.09,0.01,0.18,0.03,0.28,0.03c8.93,0,16.62-4.98,20.69-12.25
		c1.02,0.15,2.03,0.31,3.09,0.31c0,11.44,9.28,20.72,20.72,20.72c11.44,0,20.72-9.28,20.72-20.72s-9.28-20.72-20.72-20.72
		C581.01,165.7,571.74,156.42,560.3,156.42z"/>
	<path class="st11" d="M511.79,203.66c0-6.73,5.45-12.18,12.18-12.18c6.73,0,12.18,5.45,12.18,12.18s-5.45,12.18-12.18,12.18
		C517.24,215.84,511.79,210.39,511.79,203.66z"/>
	<path class="st13" d="M449.26,415.36c-1.31-19.34,17.16-91.2,30.98-112.58"/>
	<path class="st13" d="M490.2,319.8c3.23,6.64,19.15,36.1,32.65,46.49c5.15-4.88,42.27-36.52,42.27-36.52
		c-4.74-8.81-27.53-36.43-34.92-43.19"/>
	<path class="st13" d="M515.86,359.57l44.62-36.88"/>
	<path class="st13" d="M548.22,273.45c-0.31,0.98-0.76,1.9-1.37,2.76c-5.3,7.4-20.24,6.59-33.37-1.8"/>
	<path class="st13" d="M553.45,282.67c2.53,6.58,5.99,21.93,4.53,36.62"/>
	<path class="st13" d="M569.88,340.5l16.83-14.91"/>
	<path class="st13" d="M496.68,401.83c5.55-0.87,35.85-0.24,30.25,1.65c-5.6,1.89-16.08,3.25-11.4,4.36
		c4.68,1.11,12.12,2.32,13.61,2.34"/>
	<path class="st14" d="M568.25,223.55c-0.3,2.78,0.3,8.98,2.4,11.72"/>
	<path class="st15" d="M551.39,219.89c1.03-2.37,3-3.8,4.39-3.19s1.68,3.02,0.64,5.39c-1.03,2.37-3,3.8-4.39,3.19
		S550.36,222.26,551.39,219.89z"/>
	<path class="st15" d="M575.14,225.28c1.03-2.37,3-3.8,4.39-3.19s1.67,3.02,0.64,5.39c-1.03,2.37-3,3.8-4.39,3.19
		S574.11,227.65,575.14,225.28z"/>
	<path class="st14" d="M551.28,242.69c-3.86-1.22-6.73-4.66-7.1-8.82"/>
	<path class="st14" d="M545.78,253.64c-8.58-1.6-15.94-6.68-20.54-13.72"/>
	<path class="st14" d="M528.22,215.08c-1.32,0.49-2.75,0.76-4.25,0.76c-1.14,0-2.24-0.16-3.29-0.45"/>
	<path class="st14" d="M521.61,211.01c-3.02-0.83-5.25-3.6-5.25-6.88c0-3.94,3.2-7.14,7.14-7.14s7.14,3.2,7.14,7.14"/>
	<path class="st14" d="M628.64,378.16l-33.27-5.08l-20.64-26.52"/>
	<path class="st14" d="M641.93,297.42c1.24-2.7,4.68-8.62,3.49-11.2c-1.19-2.58-9.42-6.07-8.42-8.54c1.01-2.47,5.59-9.15,5.59-9.15"
		/>
	<path class="st14" d="M656.42,258.79l-6.31,12.9"/>
	<path class="st14" d="M663.91,270.08l-5.13,7.28"/>
	<path class="st14" d="M707.26,383.73l9.16,7.03"/>
	<path class="st14" d="M711.51,404.91l-6.84-6.35"/>
	<g>
		<path class="st3" d="M670.42,160.05h11.53c0.55,0,0.99,0.64,0.99,1.42v7.19c0,0.79-0.44,1.42-0.99,1.42h-11.53
			c-0.55,0-0.99-0.64-0.99-1.42v-7.19C669.43,160.69,669.87,160.05,670.42,160.05z"/>
		<path class="st3" d="M687.93,165.52v4.43c0,0.12-0.09,0.17-0.19,0.11l-3.84-2.21l-3.84-2.21c-0.11-0.06-0.11-0.16,0-0.22
			l3.84-2.21l3.84-2.21c0.11-0.06,0.19-0.01,0.19,0.11V165.52z"/>
	</g>
	<path class="st16" d="M661.69,165.07c0-9.39,7.61-17,17-17s17,7.61,17,17s-7.61,17-17,17
		C669.29,182.06,661.69,174.45,661.69,165.07z"/>
	<path class="st17" d="M439.77,123.87h243.59c13.66,0,24.74,11.07,24.74,24.74v124.08c0,13.66-11.07,24.74-24.74,24.74H439.77
		c-13.66,0-24.74-11.08-24.74-24.74V148.61C415.03,134.95,426.11,123.87,439.77,123.87z"/>
	<path class="st17" d="M706.51,139.75H416.88"/>
	<path class="st16" d="M432.81,132.1c0-1.94,1.58-3.52,3.52-3.52s3.52,1.57,3.52,3.52c0,1.94-1.57,3.52-3.52,3.52
		C434.39,135.62,432.81,134.04,432.81,132.1z"/>
	<path class="st16" d="M446.69,132.1c0-1.94,1.57-3.52,3.52-3.52c1.94,0,3.52,1.57,3.52,3.52c0,1.94-1.58,3.52-3.52,3.52
		C448.27,135.62,446.69,134.04,446.69,132.1z"/>
	<path class="st16" d="M460.57,132.1c0-1.94,1.57-3.52,3.52-3.52c1.94,0,3.52,1.57,3.52,3.52c0,1.94-1.57,3.52-3.52,3.52
		C462.14,135.62,460.57,134.04,460.57,132.1z"/>
	<g>
		<path class="st5" d="M896.87,423.06l-92.51,283.82"/>
		<path class="st5" d="M971.98,423.06l-92.51,283.82"/>
		<path class="st5" d="M971.98,423.06l92.51,283.82"/>
		<path class="st5" d="M896.87,423.06l92.51,283.82"/>
	</g>
	<path class="st4" d="M736.69,238.28h143.37c6.18,0,11.19,5.01,11.19,11.19v118.36c0,6.18-5.01,11.19-11.19,11.19H736.69
		c-6.18,0-11.19-5.01-11.19-11.19V249.46C725.5,243.28,730.51,238.28,736.69,238.28z"/>
	<path class="st2" d="M736.7,238.26c-6.18,0-11.19,5.01-11.19,11.19v118.38c0,6.18,5.01,11.19,11.19,11.19h7.19
		c-0.06-0.68-0.22-1.34-0.22-2.03V238.26H736.7z"/>
	<path class="st2" d="M788.49,344.15h48.41l27.11,61.66h-50.12L788.49,344.15z"/>
	<path class="st2" d="M950.22,362.36h39.88v43.45h-39.88V362.36z"/>
	<path class="st18" d="M979.46,384.09c0-5.68,4.61-10.29,10.29-10.29s10.29,4.61,10.29,10.29c0,5.68-4.61,10.29-10.29,10.29
		C984.07,394.37,979.46,389.77,979.46,384.09z"/>
	<path class="st5" d="M950.22,369.77h39.53"/>
	<path class="st19" d="M439.9,123.87h243.59c13.66,0,24.74,11.07,24.74,24.74v124.08c0,13.66-11.07,24.74-24.74,24.74H439.9
		c-13.66,0-24.74-11.08-24.74-24.74V148.61C415.16,134.95,426.24,123.87,439.9,123.87z"/>
</g>
</svg>
